<svg xmlns="http://www.w3.org/2000/svg" viewBox="0 0 1200 630" width="1200" height="630" xmlns:c2pa="http://c2pa.org/manifest"><metadata><c2pa:manifest>AAAWgmp1bWIAAAAeanVtZGMycGEAEQAQgAAAqgA4m3EDYzJwYQAAABZcanVtYgAAAEdqdW1kYzJtYQARABCAAACqADibcQN1cm46YzJwYTo1YjFlYTM1NC0wYTc2LTQ5MDMtYWE4ZC03MjhiYTBiOWJkYjkAAAADl2p1bWIAAAApanVtZGMyYXMAEQAQgAAAqgA4m3EDYzJwYS5hc3NlcnRpb25zAAAAALxqdW1iAAAARGp1bWRjYm9yABEAEIAAAKoAOJtxE2MycGEuaW5ncmVkaWVudC52MwAAAAAYYzJzaPcTiqDlwLJ1BVXlHhhghC8AAABwY2JvcqNpZGM6Zm9ybWF0bWltYWdlL3N2Zyt4bWxqaW5zdGFuY2VJRHgseG1wOmlpZDpmYjdjNzkzOS1hYWIwLTQyZjUtOTMzYy02M2FiYzEwNjA2NDFscmVsYXRpb25zaGlwaHBhcmVudE9mAAAB4mp1bWIAAABBanVtZGNib3IAEQAQgAAAqgA4m3ETYzJwYS5hY3Rpb25zLnYyAAAAABhjMnNoyp48iyMNbZky+ISH5uWb5AAAAZljYm9yomdhY3Rpb25zgqJmYWN0aW9ua2MycGEub3BlbmVkanBhcmFtZXRlcnOha2luZ3JlZGllbnRzgaJjdXJseC1zZWxmI2p1bWJmPWMycGEuYXNzZXJ0aW9ucy9jMnBhLmluZ3JlZGllbnQudjNkaGFzaFggH92EImBuboRrCHi4bSyB730DgSItkLUt09wbn7cyH2SkZmFjdGlvbngdY29tLmFudGhyb3BpYy5jbGF1ZGUucHJvdmlkZWRqcGFyYW1ldGVyc6F4H2NvbS5hbnRocm9waWMub3JpZ2luLWNvbmZpZGVuY2VndW5rbm93bmtkZXNjcmlwdGlvbnhmQ2xhdWRlIHByb3ZpZGVkIHRoaXMgZmlsZSBhdCB0aGUgcmVxdWVzdCBvZiBhIHVzZXIgYW5kIG1heSBoYXZlIGNyZWF0ZWQgb3IgbW9kaWZpZWQgdGhlIGZpbGUgY29udGVudHMubXNvZnR3YXJlQWdlbnShZG5hbWVmQ2xhdWRlcmFsbEFjdGlvbnNJbmNsdWRlZPUAAADIanVtYgAAAEBqdW1kY2JvcgARABCAAACqADibcRNjMnBhLmhhc2guZGF0YQAAAAAYYzJzaC1hrOe5wM50KWNrvA8xS6gAAACAY2JvcqVjYWxnZnNoYTI1NmNwYWRNAAAAAAAAAAAAAAAAAGRoYXNoWCASG5CGXy36SHI19/eCURrqwf4ak5HUslg/r/sPAkQXg2RuYW1lbmp1bWJmIG1hbmlmZXN0amV4Y2x1c2lvbnOBomVzdGFydBiYZmxlbmd0aBkeBAAAAj5qdW1iAAAAJ2p1bWRjMmNsABEAEIAAAKoAOJtxA2MycGEuY2xhaW0udjIAAAACD2Nib3KlY2FsZ2ZzaGEyNTZpc2lnbmF0dXJleE1zZWxmI2p1bWJmPS9jMnBhL3VybjpjMnBhOjViMWVhMzU0LTBhNzYtNDkwMy1hYThkLTcyOGJhMGI5YmRiOS9jMnBhLnNpZ25hdHVyZWppbnN0YW5jZUlEeCx4bXA6aWlkOmYyYmQ3OTQ2LTkxNzEtNGVmMy05OTQ3LTJmMmE4YzcyNWNhMnJjcmVhdGVkX2Fzc2VydGlvbnODomN1cmx4LXNlbGYjanVtYmY9YzJwYS5hc3NlcnRpb25zL2MycGEuaW5ncmVkaWVudC52M2RoYXNoWCAf3YQiYG5uhGsIeLhtLIHvfQOBIi2QtS3T3BuftzIfZKJjdXJseCpzZWxmI2p1bWJmPWMycGEuYXNzZXJ0aW9ucy9jMnBhLmFjdGlvbnMudjJkaGFzaFggHRQxkAOYdmumXZ1g/j0gw56dW36RjY/NsWl6gRbXBLiiY3VybHgpc2VsZiNqdW1iZj1jMnBhLmFzc2VydGlvbnMvYzJwYS5oYXNoLmRhdGFkaGFzaFggpJ33kaB/io1BDTCJu3DrJ1BzrVwAaWNPngt1enuqOFZ0Y2xhaW1fZ2VuZXJhdG9yX2luZm+jZG5hbWVvQW50aHJvcGljIEZpbGVzZ3ZlcnNpb25lMS4wLjBrc3BlY1ZlcnNpb25lMi40LjAAABA4anVtYgAAAChqdW1kYzJjcwARABCAAACqADibcQNjMnBhLnNpZ25hdHVyZQAAABAIY2JvctKEWQISogEmGCFZAgowggIGMIIBjaADAgECAhRA5aAK7sI50L64g/oGQgU9Z1UTADAKBggqhkjOPQQDAzBJMRcwFQYDVQQKEw5BbnRocm9waWMsIFBCQzEuMCwGA1UEAxMlQW50aHJvcGljIENvbnRlbnQgQ3JlZGVudGlhbHMgUm9vdCBDQTAeFw0yNjA4MDcxODQzNTZaFw0yODA4MDYxOTQzNTZaMEQxFzAVBgNVBAoTDkFudGhyb3BpYywgUEJDMSkwJwYDVQQDEyBBbnRocm9waWMgQ2xhdWRlIENvbnRlbnQgU2lnbmluZzBZMBMGByqGSM49AgEGCCqGSM49AwEHA0IABJh6CmvLUBgFFNU0vUKlOVtE6djd17L5SuwX0LemFisBM3dkd/3cyjxFA3Qo5S46fX0/ihY0VZ7mfb9KF703t5OjWDBWMA4GA1UdDwEB/wQEAwIHgDAVBgNVHSUEDjAMBgorBgEEAYPoXgIBMAwGA1UdEwEB/wQCMAAwHwYDVR0jBBgwFoAUzlHiBIFOZFsj+OPEz5o+nMHXXMIwCgYIKoZIzj0EAwMDZwAwZAIwMXMdFJ4BetLLVY7ORuE9noqbbAZOZn/aArXyTwFAZfKrPzxF2vPoJNf1+UCdg1XGAjBwX1zd9WGqYkqmL5SFqw1QySjr1zJfpJM9+1rdDwSPLMOPOjKuiXjoU/pUUeG9RwmhY3BhZFkNngAAAAAAAAAAAAAAAAAAAAAAAAAAAAAAAAAAAAAAAAAAAAAAAAAAAAAAAAAAAAAAAAAAAAAAAAAAAAAAAAAAAAAAAAAAAAAAAAAAAAAAAAAAAAAAAAAAAAAAAAAAAAAAAAAAAAAAAAAAAAAAAAAAAAAAAAAAAAAAAAAAAAAAAAAAAAAAAAAAAAAAAAAAAAAAAAAAAAAAAAAAAAAAAAAAAAAAAAAAAAAAAAAAAAAAAAAAAAAAAAAAAAAAAAAAAAAAAAAAAAAAAAAAAAAAAAAAAAAAAAAAAAAAAAAAAAAAAAAAAAAAAAAAAAAAAAAAAAAAAAAAAAAAAAAAAAAAAAAAAAAAAAAAAAAAAAAAAAAAAAAAAAAAAAAAAAAAAAAAAAAAAAAAAAAAAAAAAAAAAAAAAAAAAAAAAAAAAAAAAAAAAAAAAAAAAAAAAAAAAAAAAAAAAAAAAAAAAAAAAAAAAAAAAAAAAAAAAAAAAAAAAAAAAAAAAAAAAAAAAAAAAAAAAAAAAAAAAAAAAAAAAAAAAAAAAAAAAAAAAAAAAAAAAAAAAAAAAAAAAAAAAAAAAAAAAAAAAAAAAAAAAAAAAAAAAAAAAAAAAAAAAAAAAAAAAAAAAAAAAAAAAAAAAAAAAAAAAAAAAAAAAAAAAAAAAAAAAAAAAAAAAAAAAAAAAAAAAAAAAAAAAAAAAAAAAAAAAAAAAAAAAAAAAAAAAAAAAAAAAAAAAAAAAAAAAAAAAAAAAAAAAAAAAAAAAAAAAAAAAAAAAAAAAAAAAAAAAAAAAAAAAAAAAAAAAAAAAAAAAAAAAAAAAAAAAAAAAAAAAAAAAAAAAAAAAAAAAAAAAAAAAAAAAAAAAAAAAAAAAAAAAAAAAAAAAAAAAAAAAAAAAAAAAAAAAAAAAAAAAAAAAAAAAAAAAAAAAAAAAAAAAAAAAAAAAAAAAAAAAAAAAAAAAAAAAAAAAAAAAAAAAAAAAAAAAAAAAAAAAAAAAAAAAAAAAAAAAAAAAAAAAAAAAAAAAAAAAAAAAAAAAAAAAAAAAAAAAAAAAAAAAAAAAAAAAAAAAAAAAAAAAAAAAAAAAAAAAAAAAAAAAAAAAAAAAAAAAAAAAAAAAAAAAAAAAAAAAAAAAAAAAAAAAAAAAAAAAAAAAAAAAAAAAAAAAAAAAAAAAAAAAAAAAAAAAAAAAAAAAAAAAAAAAAAAAAAAAAAAAAAAAAAAAAAAAAAAAAAAAAAAAAAAAAAAAAAAAAAAAAAAAAAAAAAAAAAAAAAAAAAAAAAAAAAAAAAAAAAAAAAAAAAAAAAAAAAAAAAAAAAAAAAAAAAAAAAAAAAAAAAAAAAAAAAAAAAAAAAAAAAAAAAAAAAAAAAAAAAAAAAAAAAAAAAAAAAAAAAAAAAAAAAAAAAAAAAAAAAAAAAAAAAAAAAAAAAAAAAAAAAAAAAAAAAAAAAAAAAAAAAAAAAAAAAAAAAAAAAAAAAAAAAAAAAAAAAAAAAAAAAAAAAAAAAAAAAAAAAAAAAAAAAAAAAAAAAAAAAAAAAAAAAAAAAAAAAAAAAAAAAAAAAAAAAAAAAAAAAAAAAAAAAAAAAAAAAAAAAAAAAAAAAAAAAAAAAAAAAAAAAAAAAAAAAAAAAAAAAAAAAAAAAAAAAAAAAAAAAAAAAAAAAAAAAAAAAAAAAAAAAAAAAAAAAAAAAAAAAAAAAAAAAAAAAAAAAAAAAAAAAAAAAAAAAAAAAAAAAAAAAAAAAAAAAAAAAAAAAAAAAAAAAAAAAAAAAAAAAAAAAAAAAAAAAAAAAAAAAAAAAAAAAAAAAAAAAAAAAAAAAAAAAAAAAAAAAAAAAAAAAAAAAAAAAAAAAAAAAAAAAAAAAAAAAAAAAAAAAAAAAAAAAAAAAAAAAAAAAAAAAAAAAAAAAAAAAAAAAAAAAAAAAAAAAAAAAAAAAAAAAAAAAAAAAAAAAAAAAAAAAAAAAAAAAAAAAAAAAAAAAAAAAAAAAAAAAAAAAAAAAAAAAAAAAAAAAAAAAAAAAAAAAAAAAAAAAAAAAAAAAAAAAAAAAAAAAAAAAAAAAAAAAAAAAAAAAAAAAAAAAAAAAAAAAAAAAAAAAAAAAAAAAAAAAAAAAAAAAAAAAAAAAAAAAAAAAAAAAAAAAAAAAAAAAAAAAAAAAAAAAAAAAAAAAAAAAAAAAAAAAAAAAAAAAAAAAAAAAAAAAAAAAAAAAAAAAAAAAAAAAAAAAAAAAAAAAAAAAAAAAAAAAAAAAAAAAAAAAAAAAAAAAAAAAAAAAAAAAAAAAAAAAAAAAAAAAAAAAAAAAAAAAAAAAAAAAAAAAAAAAAAAAAAAAAAAAAAAAAAAAAAAAAAAAAAAAAAAAAAAAAAAAAAAAAAAAAAAAAAAAAAAAAAAAAAAAAAAAAAAAAAAAAAAAAAAAAAAAAAAAAAAAAAAAAAAAAAAAAAAAAAAAAAAAAAAAAAAAAAAAAAAAAAAAAAAAAAAAAAAAAAAAAAAAAAAAAAAAAAAAAAAAAAAAAAAAAAAAAAAAAAAAAAAAAAAAAAAAAAAAAAAAAAAAAAAAAAAAAAAAAAAAAAAAAAAAAAAAAAAAAAAAAAAAAAAAAAAAAAAAAAAAAAAAAAAAAAAAAAAAAAAAAAAAAAAAAAAAAAAAAAAAAAAAAAAAAAAAAAAAAAAAAAAAAAAAAAAAAAAAAAAAAAAAAAAAAAAAAAAAAAAAAAAAAAAAAAAAAAAAAAAAAAAAAAAAAAAAAAAAAAAAAAAAAAAAAAAAAAAAAAAAAAAAAAAAAAAAAAAAAAAAAAAAAAAAAAAAAAAAAAAAAAAAAAAAAAAAAAAAAAAAAAAAAAAAAAAAAAAAAAAAAAAAAAAAAAAAAAAAAAAAAAAAAAAAAAAAAAAAAAAAAAAAAAAAAAAAAAAAAAAAAAAAAAAAAAAAAAAAAAAAAAAAAAAAAAAAAAAAAAAAAAAAAAAAAAAAAAAAAAAAAAAAAAAAAAAAAAAAAAAAAAAAAAAAAAAAAAAAAAAAAAAAAAAAAAAAAAAAAAAAAAAAAAAAAAAAAAAAAAAAAAAAAAAAAAAAAAAAAAAAAAAAAAAAAAAAAAAAAAAAAAAAAAAAAAAAAAAAAAAAAAAAAAAAAAAAAAAAAAAAAAAAAAAAAAAAAAAAAAAAAAAAAAAAAAAAAAAAAAAAAAAAAAAAAAAAAAAAAAAAAAAAAAAAAAAAAAAAAAAAAAAAAAAAAAAAAAAAAAAAAAAAAAAAAAAAAAAAAAAAAAAAAAAAAAAAAAAAAAAAAAAAAAAAAAAAAAAAAAAAAAAAAAAAAAAAAAAAAAAAAAAAAAAAAAAAAAAAAAAAAAAAAAAAAAAAAAAAAAAAAAAAAAAAAAAAAAAAAAAAAAAAAAAAAAAAAAAAAAAAAAAAAAAAAAAAAAAAAAAAAAAAAAAAAAAAAAAAAAAAAAAAAAAAAAAAAAAAAAAAAAAAAAAAAAAAAAAAAAAAAAAAAAAAAAAAAAAAAAAAAAAAAAAAAAAAAAAAAAAAAAAAAAAAAAAAAAAAAAAAAAAAAAAAAAAAAAAAAAAAAAAAAAAAAAAAAAAAAAAAAAAAAAAAAAAAAAAAAAAAAAAAAAAAAAAAAAAAAAAAAAAAAAAAAAAAAAAAAAAAAAAAAAAAAAAAAAAAAAAAAAAAAAAAAAAAAAAAAAAAAAAAAAAAAAAAAAAAAAAAAAAAAAAAAAAAAAAAAAAAAAAAAAAAAAAAAAAAAAAAAAAAAAAAAAAAAAAAAAAAAAAAAAAAAAAAAAAAAAAAAAAAAAAAAAAAAAAAAAAAAAAAAAAAAAAAAAAAAAAAAAAAAAAAAAAAAAAAAAAAAAAAAAAAAAAAAAAAAAAAAAAAAAAAAAAAAAAAAAAAAAAAAAAAAAAAAAAAAAAAAAAAAAAAAAAAAAAAAAAAAAAAAAAAAAAAAAAAAAAAAAAAAAAAAAAAAAAAAAAAAAAAAAAAAAAAAAAAAAAAAAAAAAAAAAAAAAAAAAAAAAAAAAAAAAAAAAAAAAAAAAAAAAAAAAAAAAAAAAAAAAAAAAAAAAAAAAAAAAAAAAAAAAAAAAAAAAAAAAAAAAAAAAAAAAAAAAAAAAAAAAAAAAAAAAAAAAAAAAAAAAAAAAAAAAAAAAAAAAAAAAAAAAAAAAAAAAAAAAAAAAAAAAAAAAAAAAAAAAAAAAAAAAAAAAAAAAAAAAAAAAAAAAAAAAAAAAAAAAAAAAAAAAAAAAAAAAAAAAAAAAAAAAAAAAAAAAAAAAAAAAAAAAAAAAAAAAAAAAAAAAAAAAAAAAAAAAAAAAAAAAAAAAAAAAAAAAAAAAAAAAAAAAAAAAAAAAAAAAAAAAAAAAAAAAAAAAAAAAAAAAAAAAAAAAAAAAAAAAAAAAAAAAAAAAAAAAAAAAAAAAAAAAAAAAAAAAAAAAAAAAAAAAAAAAAAAAAAAAAAAAAAAAAAAAAAAAAAAAAAAAAAAAAAAAAAAAAAAAAAAAAAAAAAAAAAAAAAAAAAAAAAAAAAAAAAAAAAAAAAAAAAAAAAAAAAAAAAAAAAAAAAAAAAAAAAAAAAAAAAAAAAAAAAAAAAAAAAAAAAAAAAAAAAAAAAAAAAAAAAAAAAAAAAAAAAAAAAAAAAAAAAAAAAAAAAAAAAAAAAAAAAAAAAAAAAAAAAAAAAAAAAAAAAAAAAAAAAAAAAAAPZYQClSZ8KwbJI01gRgfD8HEseTyScZVDA6lgGEGmUhYvoTTC9siqeHVmp21EtRp+1uTo6WU38yDlGuLgxKjAl5Slo=</c2pa:manifest></metadata><rect width="1200" height="630" fill="#F6F1E6"></rect><svg x="96" y="110" width="700" height="314.4" viewBox="55 -1099 2476 1112"><path d="M280 0L55 0L55-688L280-688L280-429L493-429L493-688L719-688L719 0L493 0L493-271L280-271L280 0ZM1040 8L1040 8Q971 8 915-25.5Q859-59 826.5-118Q794-177 794-253L794-253Q794-329 826.5-386Q859-443 915-475.5Q971-508 1040-508L1040-508Q1089-508 1135-481Q1181-454 1206-392L1206-392L1206-501L1414-501L1414 0L1204 0L1204-93Q1180-44 1140-18Q1100 8 1040 8ZM1105-150L1105-150Q1146-150 1175-179.5Q1204-209 1204-252L1204-252Q1204-295 1175-322.5Q1146-350 1105-350L1105-350Q1062-350 1033-321Q1004-292 1004-250L1004-250Q1004-208 1033-179Q1062-150 1105-150ZM1725 0L1514 0L1514-501L1722-501L1722-376Q1742-444 1784.5-476Q1827-508 1886-508L1886-508L1911-331Q1887-334 1864-334L1864-334Q1725-334 1725-220L1725-220L1725 0Z" fill="#111014"></path><path d="M1888.6,0L1943.2,0L2090,-926.8L2035.4,-926.8Z" fill="#111014"></path><path d="M2469.3,-758.8C2487.7,-875.2 2442.7,-911 2335,-911C2233.6,-911 2163.9,-830.4 2142.6,-696.1C2117.1,-535 2164.9,-517.1 2264.1,-463.4C2363.3,-409.7 2411.1,-391.8 2385.6,-230.7C2364.4,-96.4 2294.6,-15.9 2193.2,-15.9C2085.5,-15.9 2040.5,-51.7 2059,-168" fill="none" stroke="#111014" stroke-width="54" stroke-linecap="butt"></path><circle cx="2080.8" cy="-1041.2" r="57.7" fill="#111014"></circle></svg><path d="M621.4 521.5L621.4 521.5Q617.7 521.5 615.0 520.7Q612.2 519.9 610.4 518.5Q608.5 517.1 607.6 515.2Q606.7 513.3 606.7 511.0L606.7 511.0Q606.7 510.7 606.7 510.5Q606.7 510.2 606.7 510.1L606.7 510.1L614.4 510.1Q614.4 510.2 614.4 510.3Q614.4 510.5 614.4 510.6L614.4 510.6Q614.5 512.3 615.5 513.4Q616.5 514.4 618.2 514.9Q619.8 515.3 621.7 515.3L621.7 515.3Q623.4 515.3 624.9 515.0Q626.4 514.6 627.4 513.8Q628.4 513.0 628.4 511.7L628.4 511.7Q628.4 510.1 627.1 509.2Q625.8 508.3 623.7 507.7Q621.6 507.1 619.3 506.5L619.3 506.5Q617.2 505.9 615.0 505.2Q612.9 504.5 611.2 503.4Q609.5 502.3 608.5 500.6Q607.4 498.9 607.4 496.3L607.4 496.3Q607.4 493.8 608.5 492.0Q609.6 490.1 611.5 488.9Q613.4 487.6 616.1 487.0Q618.7 486.3 621.8 486.3L621.8 486.3Q624.8 486.3 627.2 487.0Q629.7 487.6 631.5 488.8Q633.4 490.0 634.3 491.7Q635.3 493.4 635.3 495.4L635.3 495.4Q635.3 495.9 635.3 496.3Q635.3 496.8 635.3 496.8L635.3 496.8L627.7 496.8L627.7 496.4Q627.7 495.2 626.9 494.3Q626.2 493.4 624.8 492.9Q623.4 492.4 621.4 492.4L621.4 492.4Q619.8 492.4 618.7 492.7Q617.5 492.9 616.8 493.4Q616.1 493.8 615.7 494.4Q615.3 495.0 615.3 495.7L615.3 495.7Q615.3 496.9 616.3 497.6Q617.2 498.3 618.9 498.8Q620.5 499.3 622.4 499.9L622.4 499.9Q624.7 500.5 627.1 501.2Q629.6 501.9 631.7 502.9Q633.7 503.9 635.0 505.8Q636.3 507.6 636.3 510.7L636.3 510.7Q636.3 513.7 635.2 515.7Q634.1 517.8 632.0 519.1Q630.0 520.3 627.3 520.9Q624.6 521.5 621.4 521.5ZM651.8 521.5L651.8 521.5Q648.6 521.5 646.9 520.2Q645.1 519.0 644.3 517.0Q643.6 515.1 643.6 513.0L643.6 513.0L643.6 493.4L639.6 493.4L639.6 487.0L643.8 487.0L645.2 477.6L651.4 477.6L651.4 487.0L657.2 487.0L657.2 493.4L651.4 493.4L651.4 512.3Q651.4 513.6 652.1 514.3Q652.8 515.1 654.2 515.1L654.2 515.1L657.2 515.1L657.2 520.4Q656.6 520.7 655.7 520.9Q654.7 521.2 653.7 521.3Q652.7 521.5 651.8 521.5ZM670.8 481.9L663.0 481.9L663.0 474.4L670.8 474.4L670.8 481.9ZM670.8 520.7L663.0 520.7L663.0 487.0L670.8 487.0L670.8 520.7ZM686.9 520.7L679.1 520.7L679.1 474.4L686.9 474.4L686.9 520.7ZM703.0 520.7L695.2 520.7L695.2 474.4L703.0 474.4L703.0 520.7ZM732.0 520.7L724.2 520.7L724.2 474.4L732.0 474.4L732.0 520.7ZM754.8 521.5L754.8 521.5Q749.4 521.5 745.8 519.6Q742.2 517.7 740.4 513.8Q738.6 509.9 738.6 503.9L738.6 503.9Q738.6 497.8 740.4 493.9Q742.2 490.0 745.8 488.2Q749.4 486.3 754.8 486.3L754.8 486.3Q759.6 486.3 762.9 488.1Q766.2 489.9 767.9 493.7Q769.5 497.5 769.5 503.5L769.5 503.5L769.5 505.8L746.6 505.8Q746.8 508.9 747.6 511.1Q748.4 513.2 750.2 514.3Q751.9 515.3 754.8 515.3L754.8 515.3Q756.3 515.3 757.6 514.9Q758.9 514.6 759.8 513.8Q760.8 513.0 761.3 511.7Q761.9 510.5 761.9 508.9L761.9 508.9L769.5 508.9Q769.5 512.1 768.4 514.5Q767.3 516.9 765.3 518.4Q763.3 519.9 760.6 520.7Q757.9 521.5 754.8 521.5ZM746.8 500.3L746.8 500.3L761.4 500.3Q761.4 498.2 760.9 496.7Q760.5 495.2 759.6 494.3Q758.7 493.3 757.5 492.9Q756.3 492.5 754.8 492.5L754.8 492.5Q752.3 492.5 750.6 493.3Q748.9 494.1 748.0 495.9Q747.1 497.6 746.8 500.3ZM784.8 521.5L784.8 521.5Q783.4 521.5 781.6 521.1Q779.8 520.8 778.1 519.8Q776.4 518.8 775.3 517.0Q774.2 515.1 774.2 512.0L774.2 512.0Q774.2 508.5 775.8 506.3Q777.3 504.0 780.1 502.7Q782.9 501.4 786.7 500.8Q790.6 500.3 795.2 500.3L795.2 500.3L795.2 497.5Q795.2 496.1 794.8 494.9Q794.3 493.8 793.1 493.1Q791.9 492.4 789.6 492.4L789.6 492.4Q787.2 492.4 785.9 493.0Q784.5 493.6 784.0 494.4Q783.5 495.2 783.5 496.1L783.5 496.1L783.5 497.0L775.9 497.0Q775.9 496.7 775.9 496.4Q775.9 496.1 775.9 495.6L775.9 495.6Q775.9 492.7 777.6 490.6Q779.3 488.5 782.4 487.4Q785.5 486.3 789.5 486.3L789.5 486.3Q794.1 486.3 797.1 487.6Q800.1 488.8 801.5 491.2Q803.0 493.6 803.0 497.0L803.0 497.0L803.0 512.8Q803.0 514.0 803.7 514.6Q804.4 515.1 805.3 515.1L805.3 515.1L807.3 515.1L807.3 520.4Q806.7 520.7 805.4 521.1Q804.2 521.4 802.4 521.4L802.4 521.4Q800.8 521.4 799.5 520.9Q798.2 520.3 797.3 519.3Q796.4 518.3 796.0 516.9L796.0 516.9L795.6 516.9Q794.5 518.2 793.0 519.3Q791.5 520.3 789.5 520.9Q787.5 521.5 784.8 521.5ZM787.2 515.1L787.2 515.1Q789.1 515.1 790.6 514.5Q792.1 513.9 793.1 512.9Q794.1 511.9 794.7 510.4Q795.2 508.9 795.2 507.2L795.2 507.2L795.2 505.7Q791.7 505.7 788.7 506.1Q785.7 506.6 784.0 507.8Q782.2 509.0 782.2 511.2L782.2 511.2Q782.2 512.4 782.8 513.2Q783.3 514.1 784.4 514.6Q785.5 515.1 787.2 515.1ZM819.6 520.7L811.8 520.7L811.8 487.0L818.3 487.0L819.0 492.4L819.4 492.4Q820.0 490.8 821.0 489.4Q821.9 488.0 823.4 487.1Q824.8 486.3 827.0 486.3L827.0 486.3Q828.0 486.3 828.8 486.5Q829.7 486.7 830.2 486.8L830.2 486.8L830.2 494.2L827.8 494.2Q825.8 494.2 824.3 494.8Q822.7 495.3 821.7 496.4Q820.6 497.6 820.1 499.3Q819.6 501.1 819.6 503.4L819.6 503.4L819.6 520.7ZM842.8 520.7L835.0 520.7L835.0 487.0L841.5 487.0L842.1 491.5L842.6 491.5Q843.7 490.0 845.3 488.8Q846.9 487.6 848.9 486.9Q850.9 486.3 853.3 486.3L853.3 486.3Q856.5 486.3 859.0 487.4Q861.4 488.6 862.9 491.1Q864.3 493.7 864.3 498.0L864.3 498.0L864.3 520.7L856.4 520.7L856.4 499.4Q856.4 497.6 856.0 496.4Q855.6 495.2 854.8 494.5Q854.0 493.8 852.8 493.4Q851.7 493.1 850.2 493.1L850.2 493.1Q848.1 493.1 846.4 494.1Q844.7 495.2 843.8 497.0Q842.8 498.8 842.8 501.1L842.8 501.1L842.8 520.7ZM880.1 481.9L872.3 481.9L872.3 474.4L880.1 474.4L880.1 481.9ZM880.1 520.7L872.3 520.7L872.3 487.0L880.1 487.0L880.1 520.7ZM896.3 520.7L888.5 520.7L888.5 487.0L895.0 487.0L895.6 491.5L896.1 491.5Q897.2 490.0 898.8 488.8Q900.4 487.6 902.4 486.9Q904.4 486.3 906.8 486.3L906.8 486.3Q910.0 486.3 912.5 487.4Q915.0 488.6 916.4 491.1Q917.8 493.7 917.8 498.0L917.8 498.0L917.8 520.7L909.9 520.7L909.9 499.4Q909.9 497.6 909.5 496.4Q909.1 495.2 908.3 494.5Q907.5 493.8 906.3 493.4Q905.2 493.1 903.8 493.1L903.8 493.1Q901.6 493.1 899.9 494.1Q898.2 495.2 897.3 497.0Q896.3 498.8 896.3 501.1L896.3 501.1L896.3 520.7ZM946.6 532.4L931.4 532.4Q929.2 532.4 927.2 531.5Q925.2 530.6 924.0 528.8Q922.8 527.0 922.8 524.5L922.8 524.5Q922.8 521.7 924.4 520.0Q926.0 518.4 928.0 517.6L928.0 517.6Q926.5 516.8 925.6 515.5Q924.7 514.2 924.7 512.4L924.7 512.4Q924.7 510.0 926.5 508.6Q928.3 507.1 930.6 506.7L930.6 506.7Q928.2 505.2 927.0 502.9Q925.7 500.6 925.7 497.7L925.7 497.7Q925.7 494.1 927.4 491.6Q929.1 489.1 932.4 487.7Q935.6 486.3 940.2 486.3L940.2 486.3Q942.1 486.3 943.8 486.5Q945.5 486.8 947.0 487.3L947.0 487.3Q949.2 486.0 950.0 484.3Q950.9 482.6 950.9 481.5L950.9 481.5L958.5 481.5Q958.5 483.7 957.7 485.4Q956.8 487.2 955.3 488.3Q953.7 489.4 951.6 489.9L951.6 489.9Q953.2 491.3 954.0 493.3Q954.8 495.3 954.8 497.7L954.8 497.7Q954.8 501.2 953.2 503.7Q951.6 506.3 948.4 507.7Q945.2 509.1 940.6 509.1L940.6 509.1L935.4 509.1Q934.1 509.1 933.4 509.7Q932.6 510.3 932.6 511.3L932.6 511.3Q932.6 512.1 933.3 512.8Q934.0 513.4 935.2 513.4L935.2 513.4L949.9 513.4Q953.7 513.4 956.1 515.9Q958.6 518.3 958.6 522.2L958.6 522.2Q958.6 525.1 957.1 527.4Q955.6 529.7 952.9 531.0Q950.2 532.4 946.6 532.4L946.6 532.4ZM934.2 526.7L934.2 526.7L946.6 526.7Q947.8 526.7 948.7 526.3Q949.6 525.9 950.2 525.1Q950.7 524.4 950.7 523.4L950.7 523.4Q950.7 521.7 949.7 520.9Q948.6 520.1 947.1 520.1L947.1 520.1L934.2 520.1Q932.7 520.1 931.7 521.0Q930.6 521.9 930.6 523.4L930.6 523.4Q930.6 524.9 931.6 525.8Q932.6 526.7 934.2 526.7ZM940.3 503.6L940.3 503.6Q943.7 503.6 945.4 502.0Q947.1 500.5 947.1 497.7L947.1 497.7Q947.1 494.8 945.4 493.3Q943.7 491.8 940.3 491.8L940.3 491.8Q936.9 491.8 935.2 493.3Q933.5 494.8 933.5 497.7L933.5 497.7Q933.5 499.5 934.2 500.9Q935.0 502.2 936.5 502.9Q938.0 503.6 940.3 503.6Z" fill="#111014"></path><path d="M973.1 520.7L965.0 520.7L965.0 512.5L973.1 512.5L973.1 520.7Z" fill="#FF3B1F"></path></svg>